<svg id="Layer_1" data-name="Layer 1" xmlns="http://www.w3.org/2000/svg" viewBox="0 0 24 24"><title>Artboard 1</title><path d="M16.5,24h-9a7.42,7.42,0,0,1-2.87-.57,7.71,7.71,0,0,1-2.44-1.62A7.71,7.71,0,0,1,.57,19.37,7.42,7.42,0,0,1,0,16.5v-9A7.5,7.5,0,0,1,7.5,0h9A7.5,7.5,0,0,1,24,7.5v9a7.42,7.42,0,0,1-.57,2.87,7.71,7.71,0,0,1-1.62,2.44,7.54,7.54,0,0,1-2.44,1.62A7.42,7.42,0,0,1,16.5,24ZM12,6A6,6,0,0,0,7.76,16.24a6.08,6.08,0,0,0,3.07,1.65A6,6,0,1,0,12,6Zm6.45-1.25a.77.77,0,0,0-.44.14.73.73,0,0,0-.3.35.76.76,0,0,0,0,.47.85.85,0,0,0,.21.41,1,1,0,0,0,.41.22A.83.83,0,0,0,19.12,6a.9.9,0,0,0,.13-.45A.79.79,0,0,0,19,5,.82.82,0,0,0,18.45,4.75ZM12,15.75a3.76,3.76,0,1,1,2.65-1.1A3.74,3.74,0,0,1,12,15.75Z"/></svg>