<svg id="Layer_1" data-name="Layer 1" xmlns="http://www.w3.org/2000/svg" viewBox="0 0 27 21.94"><title>Artboard 1</title><path d="M27,2.6a11.8,11.8,0,0,1-3.19.87A5.5,5.5,0,0,0,26.25.41a11,11,0,0,1-3.51,1.34A5.62,5.62,0,0,0,19.91.13a5.54,5.54,0,0,0-6.75,5.41,6,6,0,0,0,.13,1.26A15.64,15.64,0,0,1,7,5.12,15.73,15.73,0,0,1,1.88,1a5.59,5.59,0,0,0-.62,4A5.59,5.59,0,0,0,3.58,8.41a5.47,5.47,0,0,1-2.5-.68v.06a5.51,5.51,0,0,0,1.25,3.5,5.59,5.59,0,0,0,3.18,1.94,5.88,5.88,0,0,1-1.45.18,5.33,5.33,0,0,1-1-.1,5.62,5.62,0,0,0,5.18,3.86,11.17,11.17,0,0,1-6.87,2.36A9.74,9.74,0,0,1,0,19.45a15.59,15.59,0,0,0,8.49,2.49A15.65,15.65,0,0,0,24.25,6.19c0-.25,0-.48,0-.72A11,11,0,0,0,27,2.6Z"/></svg>