<svg id="Layer_1" data-name="Layer 1" xmlns="http://www.w3.org/2000/svg" xmlns:xlink="http://www.w3.org/1999/xlink" viewBox="0 0 207.72 63.95"><defs><style>.cls-1{fill:#efefff;}.cls-2{mask:url(#mask);}.cls-3{opacity:0.05;}.cls-4{fill:#0000b7;}.cls-5{fill:#0000f4;}</style><mask id="mask" x="-47.19" y="-5.67" width="302" height="164.33" maskUnits="userSpaceOnUse"><g id="mask0"><rect class="cls-1" x="-47.19" y="-5.67" width="302" height="69.23"/></g></mask></defs><title>Artboard 1</title><g class="cls-2"><g class="cls-3"><path class="cls-4" d="M129.9,39.19c-12.74,17.86-26.8,27.79-27,27.7s-4.11-16-1-38.7c2.69-19.51,19.31-30.74,27-27.7S141.33,23.16,129.9,39.19Z"/><path class="cls-4" d="M77.8,39.19c12.73,17.86,26.8,27.79,27,27.7s4.11-16,1-38.7C103.13,8.68,86.51-2.55,78.78.49S66.36,23.16,77.8,39.19Z"/></g><g class="cls-3"><path class="cls-5" d="M66.13,47.36c19.45,14.82,37.72,20.78,38,20.58s-.93-18.47-11.72-41.57C83.07,6.48,61.65,0,54.41,5.79S48.65,34,66.13,47.36Z"/><path class="cls-5" d="M141.59,47.36c-19.45,14.82-37.71,20.78-37.94,20.58s.92-18.47,11.72-41.57C124.66,6.48,146.08,0,153.32,5.79S159.05,34,141.59,47.36Z"/></g><g class="cls-3"><path class="cls-4" d="M154.38,102.89c-24.71,34.65-52,53.91-52.45,53.74S94,125.52,100,81.55c5.22-37.85,37.46-59.63,52.45-53.74S176.56,71.78,154.38,102.89Z"/><path class="cls-4" d="M53.3,102.89c24.71,34.65,52,53.91,52.45,53.74s8-31.11,1.91-75.07C102.44,43.71,70.2,21.92,55.21,27.82S31.12,71.78,53.3,102.89Z"/></g><g class="cls-3"><path class="cls-5" d="M30.67,118.73c37.74,28.75,73.17,40.31,73.62,39.92S102.49,122.83,81.55,78C63.52,39.44,22,26.86,7.93,38.09S-3.24,92.9,30.67,118.73Z"/><path class="cls-5" d="M177.06,118.73c-37.73,28.75-73.16,40.31-73.61,39.92s1.79-35.82,22.74-80.64c18-38.57,59.58-51.15,73.62-39.92S210.92,92.9,177.06,118.73Z"/></g></g></svg>