<svg id="Layer_1" data-name="Layer 1" xmlns="http://www.w3.org/2000/svg" viewBox="0 0 697 213"><defs><style>.cls-1{opacity:0.05;}.cls-2{fill:#0000b7;}.cls-3{fill:#0000f4;}</style></defs><title>Artboard 1</title><g class="cls-1"><path class="cls-2" d="M435.42,131.34c-42.68,59.84-89.82,93.11-90.59,92.82s-13.78-53.73-3.3-129.68c9-65.38,64.7-103,90.59-92.83S473.73,77.6,435.42,131.34Z"/><path class="cls-2" d="M260.83,131.34c42.68,59.85,89.82,93.12,90.59,92.83s13.78-53.74,3.3-129.69c-9-65.37-64.7-103-90.6-92.82S222.51,77.6,260.83,131.34Z"/></g><g class="cls-1"><path class="cls-3" d="M221.74,158.69c65.18,49.66,126.38,69.64,127.16,69s-3.1-61.88-39.28-139.28C278.48,21.73,206.7,0,182.45,19.4S163.15,114.07,221.74,158.69Z"/><path class="cls-3" d="M474.61,158.69c-65.18,49.66-126.39,69.64-127.16,69s3.1-61.88,39.28-139.28C417.86,21.73,489.64,0,513.89,19.4S533.1,114.07,474.61,158.69Z"/></g><g class="cls-1"><path class="cls-2" d="M517.44,344.79C434.65,460.89,343.2,525.43,341.69,524.86c-1.5-.75-26.72-104.24-6.4-251.58C352.79,146.46,460.8,73.45,511.05,93.2S591.77,240.54,517.44,344.79Z"/><path class="cls-2" d="M178.74,344.79C261.53,460.89,353,525.44,354.49,524.87c1.5-.75,26.72-104.24,6.4-251.58C343.39,146.46,235.38,73.45,185.13,93.21S104.41,240.55,178.74,344.79Z"/></g><g class="cls-1"><path class="cls-3" d="M102.91,397.85C229.35,494.19,348.09,533,349.6,531.64s-6-120-76.21-270.21C213,132.16,73.74,90,26.7,127.64-20.35,165.46-10.75,311.29,102.91,397.85Z"/><path class="cls-3" d="M593.46,397.85C467,494.19,348.28,533,346.77,531.64s6-120,76.21-270.21C483.38,132.16,622.63,90,669.67,127.64,716.71,165.46,706.93,311.29,593.46,397.85Z"/></g></svg>