<svg width="247" height="378" viewBox="0 0 247 378" fill="none" xmlns="http://www.w3.org/2000/svg">
<path d="M7.5068 369.276V370.292H0V369.276H7.5068Z" fill="black"/>
<path d="M36.7107 375.6V377.746H20.5671L34.4245 358.107C28.4681 358.195 24.4651 358.475 20.7686 359.745V357.941L36.1764 357.994L22.3541 377.632C28.4156 377.492 32.585 377.15 36.7107 375.6Z" fill="black"/>
<path d="M58.8019 377.746H57.1902L53.8353 370.519H43.3416C42.0715 373.401 41.143 375.854 40.8627 377.746H39.7064L49.3242 357.88L58.8019 377.746ZM53.7477 370.353L48.641 359.605C46.6964 363.556 44.8307 367.226 43.4204 370.379L53.7477 370.353Z" fill="black"/>
<path d="M78.4142 357.994V377.746H78.2127L62.2181 358.134C62.2181 366.657 62.3582 372.096 63.1816 377.746H62.0166V357.994H63.9349L78.2127 375.486V357.994H78.4142Z" fill="black"/>
<path d="M107.136 372.893C107.136 376.362 103.746 378 99.6032 378C93.3928 378 90.5197 375.039 91.1679 371.483H91.2818C91.9299 373.997 94.5578 377.912 99.6032 377.886C103.895 377.912 106.146 376.169 106.146 373.655C106.146 370.379 103.072 369.652 98.8937 368.496C94.4351 367.173 91.3869 366.157 91.3869 362.601C91.3869 359.159 95.0308 357.748 98.9199 357.748C104.447 357.748 106.847 360.963 106.173 364.178H106.059C105.638 361.778 103.326 357.853 98.9199 357.853C94.9695 357.827 92.3416 359.43 92.3416 361.918C92.3416 364.905 95.8717 365.754 99.3141 366.797C104.035 368.093 107.136 368.995 107.136 372.893Z" fill="black"/>
<path d="M128.781 377.746H127.169L123.814 370.519H113.32C112.05 373.401 111.122 375.854 110.841 377.746H109.685L119.303 357.88L128.781 377.746ZM123.726 370.353L118.62 359.605C116.675 363.556 114.809 367.226 113.399 370.379L123.726 370.353Z" fill="black"/>
<path d="M131.995 357.994L146.501 357.88V359.824C143.654 358.44 137.417 358.107 133.493 358.107V367.366C137.444 367.279 141.561 367.138 145.345 366.718V368.076C141.561 367.655 137.444 367.541 133.493 367.454V377.755H131.995V357.994Z" fill="black"/>
<path d="M149.742 357.994L164.247 357.88V359.824C161.4 358.44 155.164 358.107 151.24 358.107V367.366C155.19 367.279 159.307 367.138 163.091 366.718V368.076C159.307 367.655 155.19 367.541 151.24 367.454V377.755H149.742V357.994Z" fill="black"/>
<path d="M184.28 377.746H182.589C182.283 377.098 181.854 374.952 181.547 372.692C181.153 369.696 180.584 367.585 176.668 367.585H168.995V377.746H167.497V357.994H176.528C181.127 357.994 183.579 359.824 183.579 362.794C183.579 365.527 181.179 367.2 177.544 367.506C181.582 367.76 182.817 369.679 183.159 372.701C183.404 375.004 183.938 377.124 184.28 377.746ZM176.125 367.471C179.935 367.471 182.02 365.64 182.02 362.785C182.02 359.938 180.076 358.099 176.405 358.099H168.986V367.462H176.125V367.471Z" fill="black"/>
<path d="M206.459 367.892C206.459 373.962 202.062 377.991 196.473 377.991C190.911 377.991 186.461 373.953 186.461 367.892C186.461 361.743 190.92 357.731 196.473 357.731C202.053 357.74 206.459 361.743 206.459 367.892ZM204.821 367.892C204.821 361.97 201.326 357.845 196.473 357.845C191.62 357.845 188.09 361.962 188.09 367.892C188.09 373.787 191.62 377.877 196.473 377.877C201.317 377.886 204.821 373.795 204.821 367.892Z" fill="black"/>
<path d="M226.062 357.994V377.746H225.861L209.866 358.134C209.866 366.657 210.006 372.096 210.83 377.746H209.673V357.994H211.592L225.87 375.486V357.994H226.062Z" fill="black"/>
<path d="M246.717 369.276V370.292H239.21V369.276H246.717Z" fill="black"/>
<path d="M135.902 209.434C137.566 207.507 139.064 205.659 140.676 203.916C143.899 200.438 147 196.821 150.486 193.624C154.174 190.242 158.203 187.212 162.189 184.163C165.018 182 167.988 180.02 170.94 178.014C175.381 174.992 180.251 172.864 185.375 171.313C186.26 171.051 187.197 170.937 188.126 170.832C189.15 170.718 189.58 171.34 189.676 172.286C189.895 174.467 190.131 176.639 190.368 178.811C190.394 179.048 190.429 179.293 190.491 179.53C190.972 181.378 190.674 181.588 188.87 181.93C186.82 182.324 184.797 182.981 182.835 183.717C177.746 185.626 173.252 188.596 168.934 191.863C165.518 194.447 161.917 196.821 158.694 199.633C155.322 202.584 152.247 205.887 149.137 209.136C147.123 211.239 145.266 213.481 143.383 215.697C142.331 216.924 141.315 218.194 140.387 219.516C140.142 219.858 140.177 220.541 140.317 220.988C142.174 226.62 142.717 232.428 142.568 238.305C142.445 243.062 141.806 247.765 140.352 252.32C140.22 252.741 140.177 253.196 140.089 253.634C140.194 253.678 140.308 253.713 140.413 253.757C141.123 252.434 141.893 251.129 142.542 249.78C146.045 242.475 148.559 234.81 150.994 227.102C153.237 219.989 156.425 213.271 160.709 207.157C163.538 203.119 166.753 199.396 171.281 197.101C173.094 196.181 175.013 195.7 177.045 195.945C178.35 196.103 178.587 196.505 178.481 197.819C178.271 200.447 178.087 203.075 177.93 205.712C177.886 206.421 177.772 206.903 176.887 206.771C172.867 206.158 169.503 207.779 166.647 210.301C164.239 212.439 162.206 214.997 160.025 217.388C159.465 218.001 159.106 218.807 157.949 218.395C157.643 218.281 156.863 218.938 156.583 219.411C155.514 221.172 154.349 222.924 153.587 224.825C150.662 232.121 148.016 239.532 145.003 246.793C143.032 251.549 140.509 256.061 137.014 259.941C136.594 260.405 136.436 261.106 136.007 261.57C135.753 261.85 135.219 261.877 134.807 262.017C134.763 261.535 134.536 260.966 134.711 260.589C135.552 258.802 136.585 257.103 137.391 255.298C139.371 250.849 140.544 246.145 140.79 241.301C140.991 237.219 140.886 233.111 140.606 229.038C140.466 226.971 139.677 224.938 139.108 222.906C138.863 222.039 138.346 222.013 137.715 222.705C135 225.701 132.258 228.67 129.578 231.692C129.271 232.034 129.113 232.638 129.113 233.111C129.122 235.423 129.245 237.745 129.254 240.057C129.262 243.009 129.192 245.961 129.166 248.913C129.131 252.609 129.131 256.297 129.087 259.994C129.052 262.875 128.973 265.757 128.912 268.639C128.903 269.024 128.912 269.41 128.912 270.093C129.858 269.48 130.603 269.086 131.242 268.578C135.289 265.319 139.178 261.894 142.507 257.874C146.098 253.529 149.803 249.281 153.333 244.892C156.18 241.354 158.72 237.569 161.611 234.066C166.551 228.083 171.763 222.346 178.341 218.08C180.785 216.494 183.36 215.093 185.962 213.788C186.934 213.297 188.152 213.262 189.264 213.104C190.193 212.973 190.762 213.437 190.771 214.41C190.788 217.256 190.832 220.103 190.753 222.941C190.745 223.344 190.14 224.054 189.799 224.062C187.416 224.133 185.393 225.14 183.465 226.357C180.189 228.433 176.861 230.439 174.084 233.216C168.25 239.067 163.363 245.654 158.615 252.382C155.856 256.288 152.834 259.994 149.935 263.804C149.365 264.548 148.848 265.328 148.489 266.274C149.067 266.046 149.646 265.819 150.215 265.582C151.222 265.17 151.949 265.626 151.993 266.563C152.063 267.912 152.028 269.34 151.643 270.61C150.478 274.411 148.191 277.626 145.914 280.841C143.304 284.529 140.098 287.586 136.445 290.205C134.553 291.562 131.706 292.666 129.946 292.684C130.27 292.202 130.419 291.711 130.699 291.615C137.724 289.241 142.463 284.143 146.44 278.231C147.99 275.927 149.208 273.387 150.451 270.89C150.74 270.312 150.513 269.48 150.521 268.762C149.777 268.928 148.831 268.867 148.323 269.314C147.28 270.233 146.457 271.416 145.572 272.511C145.301 272.844 145.117 273.246 144.731 273.886C144.223 272.204 145.108 271.162 145.362 269.857C144.583 270.654 143.838 271.495 143.006 272.23C140.185 274.727 137.409 277.285 134.457 279.623C133.02 280.762 131.26 281.507 129.587 282.304C128.877 282.645 128.693 283.031 128.658 283.767C128.457 288.304 128.343 292.85 127.905 297.361C127.449 302.065 126.486 306.699 124.935 311.192C124.637 312.068 124.532 313.005 124.217 313.873C123.525 315.765 122.754 317.622 122.018 319.496C121.905 319.785 121.826 320.092 121.686 320.538C123.551 320.854 125.242 320.416 126.889 319.969C135.955 317.508 143.312 312.497 149.278 305.227C154.183 299.253 158.133 292.727 161.567 285.842C164.23 280.508 166.893 275.165 169.731 269.918C172.332 265.109 174.978 260.3 178.534 256.078C181.442 252.627 184.701 249.657 188.914 247.853C190.753 247.065 191.717 247.564 191.936 250.017C192.146 252.39 192.085 254.79 192.181 257.173C192.251 258.864 191.813 259.056 190.254 259.538C188.686 260.02 187.232 260.983 185.857 261.929C183.15 263.786 181.241 266.414 179.41 269.086C174.706 275.962 171.667 283.661 168.294 291.212C166.245 295.793 163.897 300.252 161.62 304.728C159.579 308.748 157.091 312.489 154.148 315.913C153.946 316.15 153.815 316.457 153.43 317.096C154.595 317.008 155.514 317.096 156.346 316.851C160.218 315.703 163.538 313.54 166.683 311.061C171.526 307.224 175.687 302.713 179.226 297.694C182.677 292.797 185.261 287.428 186.645 281.542C186.96 280.193 186.75 279.912 185.279 279.387C185.174 279.352 185.095 279.238 184.998 279.168C183.063 277.652 181.74 277.661 179.892 279.352C177.903 281.165 176.292 283.25 175.381 285.825C175.258 286.158 174.96 286.429 174.75 286.736C174.619 286.675 174.487 286.613 174.356 286.552C174.426 286.149 174.478 285.737 174.566 285.334C175.205 282.61 175.713 279.842 176.528 277.171C177.851 272.844 180.575 269.646 184.885 268.026C186.689 267.351 188.239 268.184 188.634 270.102C188.958 271.679 189.089 273.325 189.036 274.928C188.844 280.902 186.636 286.315 184.052 291.58C182.966 293.796 181.714 295.942 180.373 298.018C177.57 302.38 173.918 306.024 170.256 309.659C167.41 312.48 164.212 314.836 160.717 316.746C158.142 318.147 155.462 319.356 152.361 318.716C152.011 318.646 151.476 318.883 151.196 319.154C147.613 322.667 143.383 325.128 138.801 327.125C134.001 329.219 128.991 329.981 123.858 329.543C119.058 329.131 114.319 328.29 109.808 326.372C105.13 324.384 100.742 321.949 96.4848 319.189C90.835 315.528 86.2012 310.789 82.1106 305.542C78.4229 300.821 74.7527 296.038 71.6344 290.94C67.2196 283.714 64.6006 275.76 63.2954 267.343C62.3231 261.097 63.0414 254.983 63.7684 248.817C63.8998 247.722 63.6809 246.548 63.4005 245.462C62.3319 241.336 61.7888 237.123 62.2093 232.927C62.621 228.836 63.6108 224.798 64.3203 220.734C64.3904 220.34 64.4166 219.823 64.2239 219.508C61.6837 215.215 60.5625 210.468 60.1508 205.606C59.7128 200.5 59.5377 195.349 59.5464 190.216C59.5639 184.812 60.3698 179.46 62.0428 174.3C63.2867 170.473 64.8984 166.82 67.4036 163.605C68.3846 162.344 68.7 162.169 70.2679 162.694C70.5657 162.791 70.9336 162.922 71.2052 162.843C71.9234 162.633 72.6154 162.309 73.3162 162.029C72.9308 161.45 72.6505 160.758 72.1512 160.312C68.954 157.482 66.5802 153.987 64.3553 150.422C61.5436 145.902 59.3625 141.076 58.6354 135.707C58.3201 133.385 57.6281 131.099 57.4967 128.778C57.3215 125.668 57.2953 122.515 57.6369 119.432C58.0748 115.499 58.7931 111.574 59.6953 107.729C60.1859 105.636 61.3158 103.682 62.183 101.685C62.4721 101.019 62.7962 100.354 63.2078 99.7492C63.9436 98.6718 63.7597 97.8397 62.91 96.8674C60.9304 94.6075 59.8355 91.8483 58.8719 89.054C58.0573 86.6802 57.1639 84.3064 56.6646 81.8626C56.0602 78.8581 55.7186 75.7923 55.4733 72.7265C55.3244 70.8345 55.4295 68.9074 55.631 67.0154C56.323 60.6298 58.4252 54.6209 60.6851 48.647C62.6472 43.4614 65.1349 38.5474 67.9467 33.7998C71.6519 27.5456 76.1367 21.852 81.6989 17.1657C87.3487 12.4006 93.3577 8.02968 100.313 5.30551C103.265 4.14927 106.418 3.50108 109.492 2.68646C111.945 2.0295 114.415 1.41634 116.894 0.882021C118.269 0.584202 119.688 0.435292 121.099 0.33018C123.271 0.163751 125.461 -0.0377147 127.633 0.00608222C131.995 0.0936761 136.331 0.365217 140.658 1.15356C144.793 1.90687 148.787 3.08063 152.571 4.74491C156.443 6.45299 160.183 8.56401 163.739 10.859C170.922 15.4752 176.563 21.5805 180.023 29.4727C181.871 33.6947 183.632 37.978 185.095 42.3402C186.085 45.3096 186.619 48.4543 187.136 51.5638C187.924 56.3377 188.765 61.1379 189.107 65.9555C189.334 69.1527 188.791 72.4112 188.493 75.6259C188.344 77.1851 187.924 78.7179 187.696 80.2771C187.644 80.6363 187.731 81.1793 187.968 81.3983C189.229 82.5283 189.212 84.0787 189.457 85.5328C189.755 87.2496 189.799 89.0277 190.298 90.6833C191.533 94.8089 191.323 98.9959 191.104 103.192C190.981 105.495 190.885 107.808 190.604 110.103C190.263 112.871 189.851 115.639 189.264 118.354C187.95 124.477 186.058 130.442 183.352 136.074C180.917 141.129 178.587 146.288 174.916 150.65C171.921 154.215 169.013 157.842 165.938 161.337C164.642 162.817 163.03 164.017 161.576 165.357C160.332 166.505 159.22 167.81 157.853 168.782C155.506 170.464 153.07 172.049 150.548 173.46C147.727 175.036 144.819 176.464 141.867 177.787C137.619 179.687 133.327 181.501 128.649 182.061C127.773 182.166 127.388 182.482 127.414 183.323C127.563 187.869 127.721 192.415 127.878 196.952C127.878 197.075 127.957 197.197 127.94 197.311C127.493 199.519 129 200.763 130.235 202.217C131.838 204.091 133.283 206.097 134.798 208.042C135.175 208.488 135.508 208.926 135.902 209.434ZM152.492 14.9846C152.238 16.5876 151.984 18.0504 151.783 19.5308C151.108 24.5149 149.418 29.096 146.08 32.9151C143.295 36.1123 140.352 39.1781 137.496 42.3139C136.27 43.6629 135.131 45.0994 133.835 46.3783C131.662 48.5068 129.42 50.5565 127.16 52.5887C126.389 53.2807 126.127 54.0603 126.162 55.0588C126.346 60.0079 126.477 64.957 126.643 69.906C126.652 70.1513 126.775 70.3965 126.906 70.8608C127.966 69.687 128.877 68.6797 129.788 67.6636C132.994 64.081 136.454 60.84 141.131 59.202C142.664 58.6677 142.91 58.694 143.295 60.3145C143.926 62.951 144.512 65.6051 145.047 68.268C145.24 69.2315 144.986 69.9148 143.742 70.1425C142.708 70.3352 141.709 70.9133 140.807 71.5002C137.794 73.4448 135.368 76.0288 133.257 78.8931C131.119 81.7925 129.052 84.7444 127.02 87.7314C126.6 88.3445 126.302 89.1767 126.302 89.9124C126.31 94.1345 126.442 98.3565 126.512 102.579C126.608 108.141 126.678 113.703 126.766 119.265C126.854 125.151 126.95 131.038 127.011 136.924C127.055 141.47 127.046 146.016 127.073 150.562C127.073 150.808 127.178 151.044 127.23 151.289C127.37 151.342 127.519 151.395 127.659 151.447C128.93 149.354 130.392 147.357 131.435 145.158C133.668 140.402 135.157 135.391 135.525 130.109C135.946 123.96 136.358 117.811 136.576 111.653C136.699 108.351 137.014 105.224 138.267 102.062C140.054 97.5594 142.2 93.3724 145.362 89.711C145.783 89.2205 146.186 88.5285 146.212 87.9153C146.273 86.5488 146.098 85.1649 146.002 83.7896C145.748 80.0669 145.529 76.3617 146.002 72.6039C146.545 68.303 148.244 64.6942 151.371 61.7423C152.238 60.9189 153.202 60.1918 154.253 59.3071C153.771 59.0006 153.412 58.6677 152.992 58.5013C150.486 57.5115 147.964 56.5567 145.441 55.6019C143.304 54.7961 142.988 54.1391 143.715 51.923C143.803 51.6514 143.926 51.3974 144.013 51.1346C144.635 49.1287 145.292 47.1316 145.861 45.1082C146.177 43.9957 146.632 43.7592 147.675 44.3461C147.99 44.5213 148.34 44.6352 148.673 44.7666C151.319 45.7914 153.964 46.7987 156.6 47.8323C157.546 48.2002 158.019 48.866 157.774 49.9346C157.503 51.1171 157.292 52.3172 156.977 53.4822C156.513 55.1815 155.987 56.8633 155.4 58.8341C156.565 58.4662 157.441 58.1859 158.317 57.9144C162.662 56.5479 166.788 58.2122 167.926 62.697C169.38 68.4081 169.021 74.1368 167.278 79.7516C166.639 81.81 165.228 83.3779 163.529 84.7181C160.866 86.8291 158.274 89.0365 155.672 91.2176C155.322 91.5067 155.05 91.8921 154.743 92.2337C154.796 92.3388 154.849 92.4439 154.91 92.549C156.478 92.2775 158.116 92.2249 159.587 91.6906C164.694 89.8249 169.056 86.5926 173.524 83.6057C176.046 81.9151 178.403 79.9618 181.311 79.0158C182.476 78.6391 183.825 78.788 185.086 78.7617C185.463 78.753 185.848 78.9369 186.277 79.0508C186.382 78.7092 186.487 78.4902 186.514 78.2537C186.768 76.0025 187.048 73.7514 187.25 71.4915C187.793 65.3949 187.486 59.3247 186.137 53.3508C185.612 51.0032 184.718 48.717 183.79 46.4834C182.414 43.1724 181.206 39.7124 179.287 36.7167C176.975 33.1078 174.137 29.8055 171.29 26.5821C167.436 22.2199 162.425 19.3994 157.284 16.8416C155.812 16.0708 154.183 15.6153 152.492 14.9846ZM127.475 169.448C129.227 168.896 130.787 168.572 132.197 167.924C135.981 166.18 139.739 164.376 143.426 162.44C146.037 161.074 148.682 159.672 151.003 157.885C155.059 154.758 158.992 151.447 162.767 147.987C165.132 145.815 167.182 143.292 169.231 140.813C170.467 139.315 171.413 137.581 172.534 135.978C175.486 131.774 178.333 127.508 180.286 122.734C181.609 119.519 182.992 116.313 184 112.993C185.34 108.587 186.47 104.111 187.416 99.6091C187.889 97.3755 187.775 95.0104 187.907 92.7067C188.055 90.0964 186.47 88.8088 183.939 89.5883C182.555 90.0176 181.127 90.4906 179.918 91.2702C176.353 93.5651 172.902 96.0353 169.398 98.4178C165.553 101.028 161.663 103.437 156.688 103.13C153.876 102.955 151.739 101.834 150.083 99.6266C149.663 99.0573 149.208 98.5142 148.726 97.9098C148.498 98.1638 148.367 98.3127 148.235 98.4529C145.415 101.519 143.234 105.014 141.508 108.789C140.308 111.417 139.765 114.185 139.931 117.067C140.036 118.801 140.396 120.518 140.439 122.243C140.588 128.279 140.728 134.323 140.702 140.358C140.685 144.378 139.931 148.311 138.6 152.13C136.655 157.728 133.721 162.51 128.027 165.033C127.808 165.129 127.502 165.375 127.493 165.567C127.449 166.811 127.475 168.055 127.475 169.448ZM119.522 97.647C119.259 97.7083 119.119 97.7083 119.031 97.7696C118.681 98.0412 118.348 98.339 118.007 98.628C113.96 101.974 110.044 105.487 105.218 107.72C102.021 109.201 98.6921 110.348 95.1884 110.541C91.9386 110.716 88.6626 110.523 85.4041 110.287C83.6873 110.164 81.9617 109.709 80.3062 109.218C79.0886 108.85 78.8258 108.85 78.8258 110.12C78.8258 113.265 78.7996 116.427 78.966 119.563C79.1937 123.908 79.9996 128.173 81.4361 132.29C83.407 137.923 86.5867 142.828 90.7474 147.102C91.2904 147.663 91.6233 147.716 92.2277 147.155C94.619 144.921 97.1242 142.81 99.463 140.533C104.666 135.452 107.925 129.295 108.993 122.094C109.449 118.994 109.405 115.867 107.741 112.976C107.39 112.363 107.539 111.452 107.46 110.672C107.627 110.637 107.793 110.593 107.968 110.558C108.24 111.023 108.581 111.461 108.774 111.96C111.691 119.545 109.86 126.728 106.83 133.885C107.627 133.499 108.231 133.026 108.836 132.536C111.674 130.223 114.196 131.817 115.09 134.209C117.875 141.637 117.525 148.679 112.304 155.047C112.076 155.319 111.621 155.66 111.367 155.59C111.078 155.52 110.745 155.039 110.719 154.706C110.675 154.224 110.78 153.655 111.017 153.243C111.621 152.192 112.383 151.228 112.996 150.186C114.468 147.672 115.028 144.965 114.608 142.101C114.109 142.145 113.679 142.276 113.285 142.206C111.875 141.952 110.736 142.381 109.764 143.406C108.266 144.983 106.987 146.682 106.287 148.776C106.208 149.003 105.901 149.371 105.849 149.354C105.542 149.222 105.192 149.038 105.034 148.776C104.868 148.478 104.867 148.066 104.85 147.707C104.692 144.536 104.543 141.365 104.377 137.949C103.519 139.044 102.888 140.042 102.064 140.857C99.4104 143.511 96.7038 146.121 93.9708 148.705C93.454 149.196 93.235 149.581 93.7694 150.098C94.5227 150.825 95.2672 151.561 96.0993 152.192C98.587 154.092 101.092 155.976 104.254 156.668C105.91 157.027 107.565 157.43 109.23 157.763C111.936 158.297 113.767 157.43 114.45 154.557C114.652 153.707 115.239 152.945 115.65 152.139C115.817 152.192 115.974 152.236 116.141 152.288C117.288 154.171 115.326 155.783 115.379 157.947C117.061 157.368 118.769 157.106 120.048 156.221C120.643 155.809 120.415 154.206 120.547 153.146C120.564 153.024 120.538 152.901 120.538 152.779C120.328 144.501 120.048 136.223 119.916 127.937C119.767 118.31 119.758 108.693 119.68 99.066C119.68 98.6105 119.583 98.1463 119.522 97.647ZM128.746 11.078C128.124 11.0342 127.8 10.9466 127.502 10.9904C124.953 11.3758 122.36 11.621 119.855 12.2167C116.185 13.1014 112.462 13.9598 108.958 15.3438C103.948 17.3234 99.2089 19.9512 94.7329 22.982C91.6934 25.0404 88.6101 27.0814 85.7633 29.4026C81.6814 32.7312 77.9324 36.4276 75.0505 40.9124C73.6315 43.1198 72.0373 45.2045 70.6708 47.4382C69.5934 49.1901 68.7525 51.0908 67.7715 52.8953C66.9744 54.3669 66.0984 55.6019 67.0094 57.5553C67.824 59.2984 67.8328 61.4094 68.227 63.354C68.7613 66.0081 69.4883 68.5658 72.0723 70.0549C73.5877 70.9309 75.2958 70.3265 75.5323 68.6096C75.69 67.4534 75.3571 66.2358 75.2345 65.0445C75.1907 64.6679 75.1206 64.2912 75.0593 63.9146C75.1819 63.862 75.3046 63.8095 75.436 63.7569C75.8038 64.2124 76.2944 64.6066 76.5134 65.1234C78.3791 69.5731 81.7865 73.5236 80.8055 79.1209C86.175 75.0127 91.2992 71.0885 96.4322 67.1643C95.6439 66.8753 94.9344 66.8753 94.2248 66.8753C92.3679 66.8665 90.5021 66.9629 88.6539 66.8315C85.5793 66.6037 83.4596 64.3088 83.5734 61.2605C83.6698 58.6327 83.8975 55.9873 84.318 53.3946C84.6246 51.4938 85.1151 49.5667 85.8947 47.8148C88.794 41.3066 93.1912 35.8845 98.5082 31.1895C101.767 28.3164 105.332 25.8813 109.09 23.6827C111.341 22.3688 113.618 21.598 116.211 21.6505C118.602 21.7031 119.504 22.4476 119.802 24.8389C119.855 25.2419 119.872 25.6536 119.846 26.0565C119.697 28.6931 119.557 31.3209 119.356 33.9487C119.303 34.6232 119.285 35.4378 118.278 35.6568C118.182 35.4466 118.068 35.2714 118.024 35.0874C117.56 33.1341 117.42 33.029 115.528 32.6698C113.093 32.2144 110.85 32.8713 108.713 33.9224C104.701 35.9021 101.066 38.4335 97.676 41.3767C93.9358 44.6264 90.7649 48.3054 88.3123 52.5975C86.9283 55.015 86.2363 55.2778 89.9152 55.7421C92.7533 56.1012 95.6964 55.6282 98.587 55.4618C102.091 55.2603 105.341 54.0428 108.257 52.2471C112.287 49.7682 116.115 46.9739 119.986 44.2498C120.433 43.9344 120.792 43.2161 120.845 42.6643C121.081 39.8 121.256 36.9181 121.361 34.0451C121.563 28.5529 123.578 23.525 125.426 18.4796C126.275 16.0182 127.537 13.7058 128.746 11.078ZM108.433 318.769C107.723 318.138 107.583 317.674 108.144 317.008C109.379 315.554 110.526 314.03 111.744 312.567C112.348 311.849 112.532 311.105 111.989 310.351C110.552 308.345 109.317 306.112 107.548 304.456C103.238 300.418 97.8162 298.789 92.035 298.298C90.0904 298.132 89.7138 298.018 89.1794 296.643C88.2159 294.19 87.2261 291.746 86.2275 289.311C85.7983 288.269 85.991 287.997 87.121 288.102C92.0525 288.584 96.7913 289.705 101.189 292.105C107.119 295.338 111.323 299.989 113.355 306.506C113.469 306.856 113.627 307.198 113.863 307.767C114.152 307.277 114.301 307.049 114.424 306.812C115.834 304.053 115.869 301.031 116.141 298.044C116.22 297.186 115.852 296.722 115.098 296.345C113.434 295.504 113.443 295.469 114.082 293.691C114.179 293.428 114.301 293.183 114.406 292.911C114.967 292.955 115.475 292.999 116.115 293.043C116.115 290.616 116.132 288.313 116.088 286.009C116.088 285.79 115.738 285.413 115.528 285.405C113.75 285.299 111.971 285.308 110.193 285.203C107.329 285.037 104.403 285.089 101.609 284.537C98.9111 284.003 96.2921 282.926 93.708 281.918C89.3897 280.228 85.4567 277.793 81.9179 274.841C78.4755 271.968 75.217 268.849 72.0723 265.635C69.0153 262.507 66.5977 258.899 65.2488 254.659C65.0824 254.151 64.8896 253.652 64.7145 253.144C64.5568 253.161 64.3904 253.17 64.2327 253.187C64.2152 254.974 64.1276 256.761 64.2152 258.548C64.2677 259.669 64.7583 260.782 64.7583 261.903C64.7495 267.027 66.0546 271.836 67.9204 276.566C71.9935 286.929 78.2214 295.933 85.2114 304.474C85.4304 304.736 85.7545 304.92 86.0436 305.113C86.429 305.367 87.0159 305.481 87.2173 305.831C88.8641 308.704 91.0715 310.956 93.9445 312.646C97.7111 314.871 101.32 317.359 105.568 318.69C110.158 320.135 114.879 320.486 119.627 320.722C119.942 320.74 120.442 320.258 120.599 319.89C121.65 317.394 122.307 314.889 122.316 312.068C122.351 303.423 122.763 294.777 123.017 286.14C123.034 285.641 122.929 285.133 122.868 284.581C122.439 284.642 122.15 284.739 121.887 284.704C120.363 284.476 120.319 285.334 120.24 286.552C120.03 289.618 119.837 292.727 119.207 295.723C118.339 299.796 117.087 303.79 115.974 307.811C115.773 308.547 115.642 309.458 115.142 309.931C114.468 310.579 114.564 311.175 114.696 311.884C115.002 313.601 115.37 315.309 115.598 317.035C115.729 318.007 115.79 319.076 114.669 319.785C113.277 318.191 113.732 315.975 112.751 314.179C111.262 315.747 109.895 317.21 108.433 318.769ZM69.8562 228.293C68.2533 229.887 65.5466 239.645 66.2824 241.52C67.0269 239.987 67.7627 238.472 68.4898 236.965C67.6927 236.185 67.7277 234.18 68.5598 233.461C68.6825 233.356 68.9365 233.339 69.1117 233.374C71.4942 233.847 71.792 234.504 70.627 236.676C70.5307 236.851 70.4343 237.035 70.3205 237.202C68.1306 240.267 66.7116 243.701 65.6167 247.266C65.4065 247.949 65.4678 248.825 65.7043 249.509C66.1247 250.726 66.6766 251.935 67.351 253.021C71.5818 259.801 77.0652 265.354 83.8274 269.629C84.8611 270.277 85.9735 270.794 87.1035 271.398C87.2436 270.426 87.4451 269.708 87.4363 268.998C87.3925 267.097 87.6903 265.048 87.0859 263.331C84.9662 257.374 81.6726 252.338 75.1557 250.341C74.2184 250.052 73.6315 249.456 73.5965 248.405C73.5702 247.599 73.5001 246.793 73.4388 245.996C73.2811 244.016 73.106 242.046 72.9658 240.066C72.922 239.409 73.0008 238.656 73.9381 239.146C76.0053 240.241 78.239 241.17 80.0346 242.632C85.4129 247.003 87.4801 253.196 88.6539 259.722C89.3809 263.751 89.7313 267.824 88.1633 271.836C96.8351 276.085 105.936 275.795 115.352 274.981C115.16 271.381 114.967 267.947 114.783 264.513C114.652 264.496 114.512 264.487 114.38 264.47C114.266 264.732 114.135 264.995 114.039 265.267C113.417 266.983 112.768 268.683 112.199 270.417C111.866 271.442 111.323 271.512 110.447 271.083C107.329 269.55 104.211 268.026 101.057 266.563C100.278 266.204 99.971 265.827 100.295 264.986C101.057 262.989 101.775 260.975 102.52 258.977C102.853 258.075 102.634 257.812 101.67 257.856C99.6907 257.953 97.7023 257.961 95.7227 258.084C93.6642 258.207 91.8073 257.567 89.9853 256.735C89.6349 256.577 89.3021 256.358 88.9604 256.166C89.013 256.043 89.0656 255.92 89.1181 255.798C89.6524 255.92 90.178 256.061 90.7123 256.157C92.3328 256.455 93.9533 256.805 95.5913 256.998C99.314 257.427 102.818 256.463 106.199 255.062C108.59 254.072 110.64 252.531 112.155 250.384C113.487 248.501 112.83 246.46 110.666 246.066C109.554 245.865 108.31 245.978 107.197 246.241C106.05 246.513 104.99 247.126 103.895 247.59C103.781 247.546 103.676 247.503 103.562 247.468C103.93 246.688 104.14 245.786 104.684 245.164C106.838 242.667 109.799 242.589 112.768 242.773C112.768 242.159 112.768 241.651 112.768 241.029C112.26 241.1 111.866 241.135 111.472 241.205C108.722 241.748 105.997 242.387 103.168 242.58C97.3257 242.974 91.5445 242.965 86.1487 240.399C83.3982 239.094 80.7003 237.552 78.2828 235.721C75.3308 233.479 72.703 230.834 69.8562 228.293ZM76.2856 164.166C74.9191 165.997 73.5877 167.713 72.3264 169.483C69.0854 174.011 66.1948 178.706 64.5831 184.111C62.875 189.805 61.3071 195.507 61.71 201.533C61.8677 203.863 62.0253 206.237 62.6297 208.471C63.1378 210.328 64.3028 212.001 65.1875 213.744C65.5028 214.375 65.8444 214.988 66.2649 215.785C67.0883 214.173 67.8153 212.78 68.516 211.388C71.4329 205.633 75.5323 200.868 80.7879 197.171C85.1151 194.132 90.0641 192.397 95.1095 190.97C99.5155 189.726 104.053 190.085 108.555 190.146C109.676 190.164 109.922 189.787 109.825 188.85C109.782 188.456 109.711 188.061 109.659 187.667C109.598 187.746 109.527 187.834 109.466 187.912C108.739 187.571 108.021 187.185 107.276 186.888C106.269 186.493 106.173 185.845 106.619 184.969C106.724 184.759 106.812 184.523 106.882 184.295C107.162 183.375 107.653 183.156 108.511 183.699C108.783 183.874 109.361 183.962 109.563 183.804C110.106 183.349 109.457 181.492 108.774 181.343C103.492 180.187 98.4206 178.435 93.5328 176.122C88.9254 173.95 84.6421 171.322 80.8931 167.836C79.4828 166.548 77.9149 165.462 76.2856 164.166ZM72.1249 223.703C72.6855 224.15 73.1322 224.474 73.5527 224.842C74.779 225.902 75.9352 227.041 77.2229 228.013C82.242 231.806 88.0933 232.892 94.1986 233.006C95.6351 233.032 97.0979 232.778 98.5169 232.507C102.406 231.762 106.287 230.965 110.167 230.133C111.814 229.782 111.919 229.441 111.796 227.759C111.455 223.152 111.122 218.535 110.885 213.919C110.657 209.461 110.579 205.002 110.368 200.544C110.351 200.123 109.983 199.405 109.685 199.361C108.617 199.186 107.487 199.072 106.418 199.247C104.228 199.598 102.021 199.974 99.9184 200.657C96.8877 201.638 93.8482 202.707 90.9751 204.082C86.1925 206.36 82.242 209.785 78.7645 213.753C76.1192 216.757 73.8505 220.033 72.1249 223.703ZM59.6428 126.509C59.853 129.444 60.0545 131.668 60.1596 133.893C60.2822 136.442 60.9041 138.851 62.0428 141.12C62.7786 142.6 63.5582 144.072 64.4342 145.473C65.24 146.77 66.0021 148.18 67.097 149.196C70.3292 152.192 73.7279 155.012 77.0564 157.903C77.6871 158.455 78.2214 158.367 78.8609 157.842C81.4887 155.687 84.1428 153.576 86.7969 151.456C88.1108 150.405 88.2334 149.967 87.0684 148.758C84.7997 146.393 83.3544 143.555 82.2508 140.55C80.4551 135.645 79.0448 130.644 78.6068 125.388C78.2039 120.623 77.5908 115.867 77.9411 111.075C78.0725 109.244 78.055 108.079 75.9177 107.239C73.5614 106.31 71.4855 104.619 69.3657 103.148C68.5686 102.596 68.1219 102.727 67.7014 103.446C66.4751 105.53 65.1699 107.571 64.075 109.726C63.1465 111.548 62.3582 113.466 61.7012 115.402C61.1932 116.926 60.9304 118.538 60.6501 120.132C60.2472 122.471 59.9056 124.836 59.6428 126.509ZM120.372 59.2546C110.736 66.6388 101.346 73.8302 91.7372 81.1881C92.3591 81.4772 92.8496 81.8013 93.3839 81.9414C96.5548 82.756 99.7345 83.5269 102.914 84.3327C103.825 84.5605 104.351 85.1649 104.184 86.1109C103.667 89.0628 103.098 92.0059 102.52 94.9491C102.345 95.8426 101.705 95.9564 100.935 95.7462C97.0541 94.6863 93.1737 93.6527 89.3108 92.5315C88.8904 92.4089 88.4086 91.8395 88.321 91.4103C88.1984 90.7621 88.3385 90.0351 88.4962 89.3694C88.8553 87.8627 89.3108 86.3737 89.6787 84.867C89.8539 84.14 89.9327 83.3867 90.0641 82.6422C89.9853 82.5808 89.8977 82.5195 89.8189 82.4582C84.1603 86.6014 78.782 91.0687 73.7892 96.5345C76.1104 97.4192 78.0463 98.3653 80.0959 98.8821C83.5209 99.7405 87.0334 100.275 90.5722 99.9157C92.8847 99.6879 95.3285 99.504 97.422 98.6105C100.374 97.3492 103.124 95.571 105.822 93.8016C111.034 90.3855 115.379 86.0058 119.303 81.1969C120.012 80.3297 120.407 79.4012 120.398 78.2099C120.337 72.4375 120.372 66.6738 120.372 60.9014C120.372 60.4283 120.372 59.9553 120.372 59.2546ZM146.238 23.9192C146.641 23.3761 146.991 22.982 147.254 22.5352C148.41 20.5644 149.698 18.6461 150.635 16.5788C151.52 14.6343 151.354 14.5642 149.383 13.7496C149.129 13.6445 148.857 13.5569 148.594 13.4955C146.317 12.9787 144.057 12.313 141.745 11.9889C138.39 11.5159 135.009 11.2794 131.636 11.0079C131.391 10.9904 130.97 11.4458 130.865 11.7612C130.48 12.9087 130.217 14.0912 129.876 15.2562C129.157 17.6913 128.106 20.0738 127.756 22.5615C127.186 26.6083 127.055 30.7253 126.792 34.8159C126.705 36.2437 126.775 37.689 126.775 39.4496C131.233 36.4189 135.263 33.4407 138.836 29.8143C137.426 29.7968 136.498 29.1661 135.849 28.0799C135.228 27.0463 134.474 26.0565 134.028 24.9528C132.451 21.0549 132.03 17.0343 133.073 12.9174C133.178 12.5145 133.476 12.1641 133.765 11.6473C134.641 13.1276 134.019 14.354 133.896 15.5628C133.555 18.7687 133.957 21.7907 136.051 24.3835C136.699 25.1893 137.724 25.1455 138.442 24.3835C139.38 23.3849 139.274 22.1761 139.169 20.941C139.143 20.5906 139.344 20.2315 139.441 19.8724C139.721 20.1614 140.045 20.4242 140.273 20.7571C140.396 20.9323 140.378 21.2213 140.404 21.4666C140.623 23.6214 140.842 25.7762 141.07 28.0098C142.612 26.6697 144.206 25.2769 145.809 23.8842C145.678 23.7265 145.546 23.5688 145.415 23.4112C145.677 23.5601 145.932 23.7177 146.238 23.9192ZM65.424 58.3173C64.8634 59.8327 64.3991 61.1554 63.8911 62.4693C61.8939 67.6023 60.5625 72.8842 60.1771 78.3939C59.9844 81.1268 61.2107 83.3955 62.5334 85.6554C63.9612 88.108 65.9408 90.0263 67.5788 91.4979C71.4066 87.819 75.1294 84.2364 78.9222 80.5925C78.5981 80.5749 78.2915 80.5749 77.9937 80.5311C77.1616 80.4173 76.2593 80.4611 75.5148 80.1457C73.0797 79.1121 71.7044 76.9661 70.373 74.8463C68.481 71.8418 67.8416 68.3906 67.0357 65.0007C66.5189 62.8459 65.9933 60.6911 65.424 58.3173ZM79.9558 160.014C80.6916 160.566 81.0682 160.934 81.5237 161.188C84.2654 162.738 86.9896 164.332 89.7838 165.778C91.9211 166.881 94.1285 167.853 96.3709 168.729C98.0965 169.404 99.9009 169.947 101.705 170.359C103.851 170.849 106.041 171.165 108.214 171.524C108.836 171.629 109.142 171.384 109.186 170.657C109.247 169.579 109.466 168.502 109.668 167.433C109.782 166.802 109.773 166.329 109.054 166.084C106.26 165.112 103.676 163.763 101.241 162.072C98.0527 159.865 94.9957 157.517 92.3065 154.714C89.9327 152.244 89.9503 152.227 87.1735 154.136C87.0421 154.224 86.902 154.311 86.7794 154.417C84.572 156.212 82.3559 158.043 79.9558 160.014ZM117.884 225.508C118.059 225.56 118.234 225.613 118.401 225.665C119.198 225.131 120.056 224.676 120.757 224.027C121.195 223.625 121.589 222.959 121.633 222.381C121.729 221.172 121.563 219.954 121.537 218.737C121.458 213.744 121.423 208.751 121.3 203.758C121.274 202.83 121.221 201.455 120.661 201.095C119.434 200.298 117.866 200.018 116.036 199.379C116.675 208.366 117.28 216.941 117.884 225.508ZM148.524 85.7517C148.91 85.6466 149.006 85.6466 149.059 85.6028C152.396 82.7385 155.768 79.9092 159.062 76.9923C161.085 75.2054 163.065 73.366 164.939 71.4214C165.754 70.5717 165.544 69.8272 164.449 69.468C163.249 69.0826 161.917 68.7585 160.691 68.8724C158.177 69.1089 156.022 70.3615 154.06 71.9207C153.578 72.3061 153.141 72.7528 152.676 73.1645C152.711 73.2959 152.746 73.4185 152.781 73.5499C153.43 73.6463 154.069 73.7952 154.717 73.8214C155.768 73.8565 156.057 74.4171 155.917 75.3368C155.856 75.696 155.742 76.0463 155.637 76.3967C155.269 77.6668 154.235 77.0099 153.491 77.0975C152.711 77.1851 152.58 76.6157 152.58 75.9763C152.589 75.2054 152.58 74.4346 152.58 73.6638C149.286 77.0887 148.699 81.2669 148.524 85.7517ZM120.713 273.667C122.623 273.343 122.737 273.281 122.719 272.09C122.553 261.018 122.378 249.955 122.194 238.883C122.185 238.472 122.045 238.06 121.957 237.605C121.239 237.859 120.696 238.165 120.118 238.235C119.224 238.349 118.97 238.778 119.04 239.619C119.285 242.527 119.426 245.444 119.715 248.344C120.293 254.16 120.573 259.967 120.284 265.827C120.153 268.394 120.547 270.978 120.713 273.667ZM120.485 46.5184C119.426 47.2717 118.488 47.8937 117.595 48.5681C116.08 49.7069 114.59 50.8894 113.066 52.0281C109.939 54.3844 106.751 56.653 103.676 59.0882C102.117 60.3232 101.259 62.1189 100.645 64.046C101.451 63.6168 102.126 63.0649 102.818 62.5306C108.336 58.2911 113.837 54.0252 119.408 49.8645C120.599 48.9711 120.783 48.0075 120.485 46.5184ZM120.985 194.097C120.95 193.317 120.906 192.616 120.88 191.924C120.792 189.41 120.713 186.896 120.608 184.374C120.538 182.718 120.468 182.666 118.76 182.622C118.033 182.604 117.271 182.692 116.579 182.534C115.642 182.324 115.431 182.648 115.475 183.507C115.607 186.099 115.677 188.701 115.825 191.294C115.843 191.635 116.071 192.152 116.342 192.275C117.796 192.905 119.303 193.448 120.985 194.097ZM106.234 256.639C108.853 257.865 111.209 258.995 113.592 260.09C114.31 260.414 114.547 260.055 114.477 259.345C114.231 256.849 114.021 254.344 113.767 251.847C113.732 251.488 113.539 251.138 113.303 250.402C111.674 253.529 108.949 254.904 106.234 256.639ZM128.623 217.037C128.781 217.099 128.938 217.151 129.087 217.213C129.849 216.144 130.603 215.075 131.391 214.024C131.592 213.761 131.855 213.472 132.153 213.359C132.994 213.034 133.388 212.176 132.845 211.475C131.759 210.074 130.603 208.725 129.446 207.376C129.245 207.139 128.912 207.017 128.623 206.824C128.623 210.337 128.623 213.691 128.623 217.037ZM115.063 171.436C116.666 171.217 118.059 171.059 119.443 170.805C119.741 170.753 120.109 170.376 120.196 170.087C120.345 169.553 120.424 168.948 120.31 168.414C120.231 168.011 119.829 167.407 119.522 167.372C118.173 167.232 116.798 167.24 115.44 167.275C115.212 167.284 114.801 167.722 114.801 167.959C114.827 169.097 114.967 170.245 115.063 171.436ZM126.713 43.6191C129.937 40.6934 132.994 37.9167 136.06 35.14C135.972 35.0349 135.884 34.9298 135.797 34.8247C135.569 34.956 135.315 35.0524 135.105 35.2101C132.573 37.1371 130.086 39.1343 127.493 40.9825C126.556 41.657 126.381 42.3402 126.713 43.6191Z" fill="#0000F4"/>
<path d="M177.404 241.362C177.106 242.168 176.861 243 176.493 243.78C175.784 245.287 175.135 246.837 174.242 248.23C171.947 251.847 169.67 255.491 167.138 258.942C161.874 266.125 156.39 273.141 151.117 280.307C147.71 284.94 144.355 289.618 141.289 294.479C138.872 298.316 136.909 302.433 134.833 306.471C134.378 307.347 134.308 308.415 134.01 309.388C133.887 309.791 133.625 310.15 133.423 310.526C133.239 310.474 133.055 310.43 132.871 310.378C133.003 309.291 133.029 308.179 133.292 307.119C133.835 304.92 134.308 302.669 135.149 300.576C136.174 298.036 137.444 295.565 138.819 293.192C142.962 286.009 147.692 279.212 152.703 272.616C158.02 265.608 163.555 258.776 168.942 251.83C171.5 248.527 173.935 245.129 176.432 241.774C176.589 241.564 176.791 241.38 176.966 241.187C177.124 241.248 177.264 241.301 177.404 241.362Z" fill="#0000F4"/>
<path d="M176.756 155.039C178.376 155.827 179.901 156.554 181.416 157.298C183.019 158.087 184.613 158.901 186.207 159.699C186.847 160.023 187.539 160.434 187.241 161.258C186.163 164.262 184.999 167.232 183.869 170.219C183.798 170.411 183.685 170.586 183.685 170.586C180.181 168.931 176.905 167.354 173.603 165.865C172.902 165.55 172.735 165.138 172.972 164.551C174.198 161.407 175.46 158.271 176.756 155.039Z" fill="#0000F4"/>
<path d="M182.309 230.79C185.585 232.568 188.739 234.285 191.91 235.975C192.645 236.369 192.864 236.948 192.61 237.692C191.673 240.451 190.736 243.211 189.772 245.961C189.527 246.653 189.168 246.828 188.397 246.399C185.445 244.752 182.423 243.228 179.454 241.608C179.165 241.45 178.823 240.872 178.902 240.618C179.971 237.394 181.109 234.206 182.309 230.79Z" fill="#0000F4"/>
<path d="M171.158 164.157C171.071 165.445 170.037 166.198 169.319 167.109C168.101 168.668 166.901 170.254 165.579 171.725C164.589 172.829 163.476 173.845 162.303 174.747C157.108 178.768 151.888 182.744 146.658 186.721C143.339 189.253 139.993 191.749 136.638 194.246C136.138 194.613 135.56 194.876 134.824 195.016C136.384 192.625 137.706 190.032 139.572 187.912C141.149 186.126 143.339 184.873 145.292 183.436C152.615 178.058 159.955 172.715 167.269 167.319C168.145 166.68 168.89 165.865 169.669 165.103C170.063 164.718 170.388 164.262 170.738 163.833C170.887 163.938 171.018 164.043 171.158 164.157Z" fill="#0000F4"/>
<path d="M183.763 136.504C184.21 137.178 184.622 137.73 184.955 138.308C186.181 140.445 187.609 142.495 188.528 144.755C190.079 148.548 190.622 152.603 190.368 156.694C190.114 160.776 189.658 164.849 189.238 168.913C189.194 169.308 188.791 169.658 188.555 170.026C188.336 169.632 187.933 169.238 187.933 168.835C187.924 167.661 188.073 166.496 188.152 165.322C188.599 158.735 186.558 153.024 182.038 148.206C181.381 147.505 181.171 146.778 181.372 145.885C182.029 142.968 182.677 140.042 183.343 137.126C183.387 136.977 183.527 136.863 183.763 136.504Z" fill="#0000F4"/>
<path d="M188.231 182.823C188.134 183.226 188.09 183.647 187.924 184.023C186.785 186.616 185.533 189.156 184.499 191.784C183.483 194.351 183.352 196.996 184.49 199.598C184.972 200.701 185.787 201.332 187.066 201.209C188.213 201.104 188.642 200.36 188.809 199.352C188.817 199.3 188.931 199.265 189.177 199.116C189.264 199.431 189.396 199.685 189.396 199.948C189.378 202.698 189.308 205.458 189.317 208.208C189.326 210.591 188.038 212.036 185.918 211.747C184.385 211.537 183.422 210.407 183.115 209.031C182.633 206.868 182.038 204.59 182.248 202.444C182.721 197.819 183.571 193.229 184.482 188.666C184.937 186.353 186.347 184.426 188.231 182.823Z" fill="#0000F4"/>
<path d="M145.853 223.975C145.923 223.23 145.931 222.468 146.08 221.733C146.369 220.296 147.202 219.385 148.121 219.551C149.391 219.779 149.505 220.988 149.461 221.855C149.383 223.449 149.067 225.07 148.603 226.594C148.445 227.111 147.552 227.671 146.947 227.715C145.844 227.794 145.012 227.067 144.749 225.972C144.039 222.994 143.873 220.024 145.38 217.195C145.756 216.494 146.177 215.829 146.851 215.224C146.79 215.618 146.799 216.048 146.658 216.416C146.255 217.432 145.747 218.413 145.353 219.429C144.766 220.97 144.898 222.495 145.853 223.975ZM146.028 223.949C146.562 224.457 146.965 224.895 147 224.868C147.534 224.457 148.034 224.001 148.472 223.493C148.515 223.441 148.025 222.775 147.972 222.792C147.403 223.081 146.86 223.441 146.028 223.949Z" fill="#0000F4"/>
<path d="M135.096 185.451C134.553 186.196 134.15 187.352 133.441 187.588C132.398 187.93 130.655 186.712 130.681 186.091C130.743 184.645 131.373 183.498 132.092 183.507C133.721 183.507 134.833 184.216 135.096 185.451Z" fill="#0000F4"/>
<path d="M164.291 223.949C164.142 225.105 163.082 226.576 162.522 226.314C161.707 225.928 160.533 225.473 160.332 224.798C160.017 223.756 161.357 222.065 161.988 222.144C163.485 222.319 164.405 223.038 164.291 223.949Z" fill="#0000F4"/>
<path d="M136.927 240.066C136.191 241.082 135.753 241.87 135.114 242.422C134.912 242.597 134.15 242.142 133.659 241.94C133.327 241.8 132.924 241.678 132.713 241.424C132.477 241.126 132.249 240.644 132.319 240.302C132.451 239.654 132.643 238.77 133.108 238.507C133.467 238.305 134.281 238.875 134.886 239.129C135.499 239.391 136.077 239.68 136.927 240.066Z" fill="#0000F4"/>
<path d="M155.383 183.174C155.724 182.394 155.357 180.975 156.732 180.931C158.151 180.879 159.202 181.685 159.132 182.385C159.027 183.471 158.116 184.882 157.555 184.82C156.495 184.715 155.313 183.857 155.383 183.174Z" fill="#0000F4"/>
<path d="M173.471 298.228C172.989 298.123 172.63 298.062 172.288 297.957C171.745 297.79 170.773 297.615 170.764 297.405C170.729 296.546 170.948 295.671 171.167 294.83C171.22 294.637 171.675 294.435 171.938 294.444C172.534 294.471 173.208 294.497 173.69 294.786C174.005 294.97 174.216 295.644 174.163 296.056C174.067 296.765 173.734 297.431 173.471 298.228Z" fill="#0000F4"/>
<path d="M178.332 193.116C178 192.818 177.798 192.625 177.588 192.441C177.15 192.056 176.335 191.679 176.335 191.302C176.344 190.497 176.747 189.691 177.045 188.902C177.106 188.736 177.404 188.534 177.588 188.543C179.392 188.604 180.321 190.391 179.34 191.933C179.086 192.318 178.727 192.651 178.332 193.116Z" fill="#0000F4"/>
<path d="M152.475 286.753C153.053 286.85 153.535 286.885 153.999 287.007C156.005 287.524 155.961 287.515 155.278 289.495C154.989 290.318 154.595 290.441 153.832 290.187C151.713 289.478 151.704 289.495 152.308 287.332C152.343 287.191 152.387 287.042 152.475 286.753Z" fill="#0000F4"/>
<path d="M188.239 196.155C187.88 195.962 187.661 195.866 187.46 195.743C186.032 194.85 185.822 193.624 186.864 192.318C186.934 192.231 187.074 192.099 187.144 192.117C187.898 192.318 188.73 192.424 189.369 192.818C189.606 192.967 189.544 193.878 189.369 194.342C189.141 194.964 188.668 195.498 188.239 196.155Z" fill="#0000F4"/>
<path d="M177.807 149.862C179.051 150.431 180.54 150.002 180.645 151.377C180.706 152.13 180.067 153.146 179.436 153.663C179.138 153.909 177.588 153.374 177.509 153.006C177.325 152.095 177.658 151.079 177.807 149.862Z" fill="#0000F4"/>
<path d="M188.712 262.7C191.542 263.199 191.612 263.664 190.166 266.239C187.39 265.792 187.267 265.713 188.712 262.7Z" fill="#0000F4"/>
<path d="M166.595 249.973C166.56 251.068 165.587 252.583 165.009 252.338C164.379 252.084 163.59 251.62 163.398 251.068C163.152 250.367 164.457 248.825 164.983 248.834C166.174 248.86 166.621 249.176 166.595 249.973Z" fill="#0000F4"/>
<path d="M128.746 311.332C130.997 312.243 131.233 312.681 130.375 314.381C130.217 314.696 129.49 315.081 129.376 314.994C128.859 314.582 127.651 314.74 127.992 313.548C128.202 312.821 128.483 312.112 128.746 311.332Z" fill="#0000F4"/>
<path d="M179.2 79.0245C179.156 78.3676 178.911 77.6493 179.112 77.0799C180.163 74.093 180.487 71.036 179.9 67.9614C179.182 64.2212 177.045 61.243 174.049 59.0006C172.359 57.7305 170.379 56.8282 168.478 55.8735C167.742 55.5056 167.322 55.1902 167.278 54.2968C167.164 51.9142 166.823 49.5404 166.788 47.1579C166.744 44.1184 166.858 41.0701 166.998 38.0306C167.042 36.9532 167.716 37.3561 168.277 37.6802C172.98 40.4131 176.213 44.46 178.324 49.374C181.188 56.0399 182.87 63.0036 182.239 70.3177C182.038 72.6389 181.398 74.9339 180.846 77.2201C180.68 77.9033 180.128 78.4902 179.751 79.1209C179.568 79.0858 179.384 79.0508 179.2 79.0245Z" fill="#0000F4"/>
<path d="M160.858 20.0913C160.805 20.5819 160.866 21.1162 160.674 21.5454C159.885 23.2798 158.983 24.9616 158.177 26.6959C155.681 32.0479 151.424 36.051 147.727 40.492C143.952 45.0381 140.107 49.5317 136.524 54.2354C134.071 57.4414 132.031 60.9627 129.788 64.3263C129.411 64.8956 128.93 65.3949 128.5 65.9292C128.352 65.8679 128.211 65.8066 128.062 65.7453C128.133 65.2197 128.106 64.6679 128.281 64.1774C128.632 63.1788 129.131 62.2415 129.49 61.2517C131.049 56.8633 133.231 52.8077 136.156 49.1988C140.037 44.4162 144.022 39.7124 148.025 35.0261C150.732 31.8464 153.587 28.7982 156.294 25.6185C157.555 24.1382 158.624 22.5002 159.771 20.9323C159.999 20.6169 160.218 20.3016 160.446 19.9862C160.577 20.0213 160.718 20.0563 160.858 20.0913Z" fill="#0000F4"/>
<path d="M141.648 76.9223C141.648 77.334 141.736 77.772 141.631 78.1574C140.895 80.8115 140.247 83.5006 139.318 86.0846C138.337 88.8263 136.979 91.4279 135.937 94.152C134.019 99.1887 132.17 104.252 130.375 109.332C129.762 111.066 129.411 112.888 128.947 114.675C128.842 114.693 128.728 114.702 128.623 114.719C128.57 114.229 128.43 113.721 128.492 113.247C129.385 106.476 130.918 99.8719 133.791 93.6352C135.99 88.8526 138.162 84.0525 140.334 79.2523C140.536 78.8143 140.588 78.3151 140.772 77.8683C140.921 77.5004 141.149 77.1676 141.342 76.8172C141.447 76.8522 141.543 76.8873 141.648 76.9223Z" fill="#0000F4"/>
<path d="M158.046 31.6538C158.089 32.2406 158.124 32.8275 158.168 33.4056C158.291 35.0174 158.414 36.6203 158.562 38.2321C158.589 38.5036 158.641 38.8715 158.816 39.0204C159.36 39.4847 159.981 39.8701 160.568 40.2818C160.892 39.7299 161.252 39.1956 161.532 38.6175C161.646 38.3897 161.593 38.0744 161.873 37.6977C162.031 37.9956 162.338 38.2934 162.32 38.5824C162.259 39.8175 162.215 41.0876 161.917 42.2789C161.786 42.8395 161.146 43.6191 160.665 43.6804C159.692 43.7943 158.545 43.5928 158.159 42.4366C157.73 41.1402 157.319 39.8 157.196 38.451C157.021 36.6466 157.1 34.8159 157.143 32.9939C157.152 32.5209 157.424 32.0567 157.581 31.5837C157.739 31.61 157.897 31.6275 158.046 31.6538Z" fill="#0000F4"/>
<path d="M129.306 120.71C132.109 123.417 132.88 129.724 131.014 133.271C131.146 131.739 131.26 130.346 131.373 128.953C131.505 127.368 131.023 125.931 129.937 124.836C128.719 123.601 129.324 122.322 129.306 120.71Z" fill="#0000F4"/>
<path d="M180.207 45.6688C181.88 45.8002 182.257 46.0892 182.003 47.3944C181.845 48.1827 182.335 49.6193 180.741 49.5142C178.779 49.3828 178.569 48.9448 178.674 46.7199C178.735 45.4673 179.427 45.5111 180.207 45.6688Z" fill="#0000F4"/>
<path d="M175.24 77.4829C172.455 77.9296 171.666 77.0537 172.481 74.4084C172.56 74.1543 172.928 73.8478 173.191 73.8215C175.503 73.5324 176.055 74.1806 175.512 76.4581C175.424 76.7997 175.328 77.15 175.24 77.4829Z" fill="#0000F4"/>
<path d="M132.494 91.4891C131.785 91.1913 131.54 91.0687 131.277 90.9811C130.743 90.7971 129.788 90.7095 129.744 90.4468C129.578 89.5183 129.578 88.4934 129.814 87.5824C129.884 87.3284 131.005 87.2583 131.627 87.2846C131.969 87.3021 132.556 87.6876 132.573 87.9416C132.643 89.0277 132.538 90.1314 132.494 91.4891Z" fill="#0000F4"/>
<path d="M164.353 29.8493C164.353 28.9471 164.353 28.0361 164.353 26.8273C165.342 27.0989 166.253 27.239 167.05 27.6069C167.751 27.931 167.497 30.4274 166.788 30.7428C166.639 30.8129 166.402 30.7691 166.236 30.699C165.614 30.4362 165.001 30.1471 164.353 29.8493Z" fill="#0000F4"/>
<path d="M159.141 143.625C159.894 141.461 160.752 139.333 161.383 137.134C163.179 130.871 163.976 124.442 164.326 117.942C164.519 114.334 164.878 110.734 165.29 107.151C165.614 104.295 166.98 101.922 169.205 100.091C170.913 98.6894 173.541 99.1448 174.969 100.853C176.16 102.281 176.677 103.919 176.712 105.679C176.782 109.131 176.729 112.582 176.651 116.033C176.633 116.637 176.23 117.233 176.011 117.829C175.819 117.802 175.635 117.785 175.442 117.759C175.354 116.961 175.275 116.173 175.179 115.376C175.03 114.08 175.214 112.599 174.645 111.522C173.497 109.35 170.589 109.341 168.855 111.294C168.583 111.601 168.259 111.89 168.11 112.249C167.173 114.509 165.947 116.637 165.745 119.204C165.395 123.61 165.036 128.033 164.291 132.378C163.529 136.801 162.776 141.33 160.49 145.272C158.738 148.303 156.522 151.071 154.446 153.9C154.148 154.303 153.754 155.196 152.904 154.487C152.3 153.979 152.072 152.621 152.571 152.043C156.548 147.47 157.529 141.943 157.52 136.162C157.52 133.683 157.056 131.239 155.908 128.979C155.523 128.226 155.286 127.587 154.043 127.762C153.202 127.876 152.212 127.061 151.327 126.597C149.243 125.493 147.167 124.424 144.723 124.354C143.759 124.328 143.374 123.531 143.242 122.69C142.953 120.894 142.743 119.081 142.428 117.286C142.253 116.287 141.902 115.323 141.683 114.334C141.482 113.449 141.893 112.941 142.664 113.151C145.275 113.869 147.902 114.553 150.092 116.278C153.762 119.16 155.996 123.005 157.511 127.324C159.325 132.457 159.666 137.704 158.668 143.047C158.641 143.196 158.685 143.362 158.703 143.511C158.843 143.564 158.992 143.599 159.141 143.625Z" fill="#0000F4"/>
<path d="M146.798 127.079C146.86 127.595 147.017 128.121 146.956 128.629C146.658 131.204 146.133 133.762 146.028 136.337C145.975 137.651 146.536 139.009 146.974 140.305C147.28 141.234 148.13 141.584 149.058 141.321C149.978 141.067 150.609 140.445 150.696 139.429C150.749 138.825 150.802 138.22 150.845 137.607C151.003 137.572 151.169 137.546 151.327 137.511C151.537 137.984 151.87 138.439 151.931 138.93C152.194 140.857 152.352 142.802 152.58 144.729C152.667 145.491 152.895 146.235 152.974 146.989C153.061 147.865 153.158 148.758 153.07 149.625C152.956 150.668 152.308 151.447 151.266 151.701C150.083 151.981 148.883 151.789 148.279 150.641C147.394 148.968 146.553 147.234 145.984 145.438C144.398 140.454 144.363 135.382 145.511 130.293C145.756 129.216 145.958 128.13 146.177 127.052C146.387 127.061 146.597 127.07 146.798 127.079Z" fill="#0000F4"/>
<path d="M141.272 158.534C139.38 158.534 139.204 158.297 139.152 156.195C139.108 154.46 140.501 155.161 141.254 155.003C142.191 154.802 142.839 155.564 142.857 156.528C142.883 157.982 142.437 158.534 141.272 158.534Z" fill="#0000F4"/>
<path d="M180.802 97.8923C181.424 98.0149 182.449 97.5769 182.388 98.9697C182.318 100.678 182.011 100.958 180.382 101.028C179.2 101.081 178.919 100.599 178.972 99.5215C179.051 97.8835 179.007 97.866 180.802 97.8923Z" fill="#0000F4"/>
<path d="M170.265 124.661C171.018 124.661 171.544 124.652 172.061 124.661C173.278 124.687 173.672 125.09 173.287 126.255C173.059 126.947 173.357 128.2 171.877 128.051C170.256 127.884 170.256 127.946 170.265 126.29C170.265 125.791 170.265 125.274 170.265 124.661Z" fill="#0000F4"/>
<path d="M156.872 114.772C156.872 113.843 156.662 113.011 157.95 113.072C159.5 113.142 160.026 113.379 159.824 114.57C159.701 115.323 160.376 116.795 158.922 116.769C157.039 116.734 156.925 116.629 156.872 114.772Z" fill="#0000F4"/>
<path d="M88.1985 111.259C88.3211 111.855 88.5576 112.459 88.5401 113.055C88.4788 115.157 88.3386 117.268 88.2247 119.37C88.0495 122.541 89.2145 125.239 91.1854 127.622C91.9037 128.489 92.8585 129.067 94.0935 128.62C95.3198 128.182 95.6615 127.175 95.749 126.027C95.7928 125.423 95.7578 124.819 95.7578 124.214C95.8717 124.135 95.9768 124.048 96.0907 123.969C96.4148 124.293 96.9053 124.556 97.0279 124.941C97.6674 127.026 98.1316 129.181 98.8324 131.239C99.3579 132.781 99.8922 134.261 99.7346 135.952C99.5944 137.502 99.0601 138.72 97.5798 139.315C95.968 139.972 94.6278 139.245 93.4979 138.203C90.8 135.715 89.4511 132.457 88.5664 128.997C87.4364 124.547 86.5254 120.054 86.7532 115.429C86.8232 114.018 87.2524 112.626 87.5152 111.215C87.7517 111.233 87.9707 111.25 88.1985 111.259Z" fill="#0000F4"/>
<path d="M101.758 148.863C103.475 148.863 103.992 149.415 103.913 151.211C103.887 151.789 104.176 152.682 102.993 152.665C100.523 152.638 100.067 152.209 100.085 149.827C100.102 148.399 101.206 149.056 101.758 148.863Z" fill="#0000F4"/>
<path d="M102.564 119.291C102.319 120.054 102.214 121.035 101.933 121.087C101.145 121.236 100.243 121.113 99.4631 120.868C99.2266 120.789 99.1478 119.966 99.1303 119.475C99.1128 118.897 99.0514 117.943 99.3317 117.811C100.006 117.478 100.987 117.242 101.627 117.496C102.117 117.688 102.284 118.705 102.564 119.291Z" fill="#0000F4"/>
<path d="M116.544 126.115C116.001 125.966 115.852 125.914 115.703 125.887C113.776 125.476 113.259 124.722 113.671 122.795C113.723 122.567 114.047 122.27 114.284 122.226C114.792 122.13 115.352 122.077 115.852 122.182C116.167 122.252 116.658 122.611 116.666 122.857C116.719 123.881 116.605 124.906 116.544 126.115Z" fill="#0000F4"/>
<path d="M113.399 15.9482C113.023 16.465 112.742 17.1044 112.261 17.4898C108.021 20.906 104.027 24.6287 99.4455 27.642C95.714 30.1033 92.2803 33.0027 88.6977 35.6831C86.8933 37.032 85.0363 38.3284 83.2144 39.6598C82.6275 40.089 82.1019 40.6058 81.5063 41.0263C81.2347 41.219 80.8756 41.2628 80.5515 41.3767C80.6128 41.0088 80.534 40.5095 80.7442 40.308C82.2421 38.889 83.7399 37.4525 85.3604 36.1824C89.1182 33.2392 92.9461 30.4012 96.7389 27.5106C101.224 24.0944 105.691 20.6607 110.185 17.2621C111.06 16.5964 112.033 16.062 112.961 15.4752C113.101 15.6328 113.25 15.7905 113.399 15.9482Z" fill="#0000F4"/>
<path d="M103.501 51.1434C104.009 50.4339 104.578 49.7507 105.016 48.9974C105.796 47.6309 106.567 46.2557 107.18 44.8104C107.364 44.3724 107.145 43.3388 106.865 43.2337C106.383 43.0497 105.551 43.1899 105.139 43.5315C104.281 44.241 103.597 45.1608 102.529 46.3433C102.318 45.3535 101.889 44.5651 102.091 44.0045C102.485 42.857 103.045 41.657 103.86 40.7811C105.481 39.0467 107.907 39.8613 108.467 42.2001C109.159 45.0556 107.373 49.6806 104.92 51.266C104.596 51.4763 104.123 51.4412 103.72 51.5201C103.632 51.3974 103.562 51.2748 103.501 51.1434Z" fill="#0000F4"/>
<path d="M97.9475 50.539C96.8 50.4251 95.7138 50.3638 94.6364 50.1886C94.3649 50.1448 94.0058 49.7857 93.9182 49.5054C93.2875 47.3506 93.8043 46.7725 95.9679 47.1228C98.2803 47.4995 98.5782 47.9813 97.9475 50.539Z" fill="#0000F4"/>
<path d="M77.5468 55.0589C76.3205 54.9012 75.4095 54.8224 74.516 54.6472C74.2708 54.6034 74.0343 54.3231 73.8766 54.0953C73.7715 53.9552 73.8065 53.7099 73.789 53.5085C73.6226 51.1522 74.3233 50.5478 76.5832 51.231C76.9161 51.3361 77.3015 51.8179 77.3628 52.177C77.5117 53.1055 77.4942 54.0691 77.5468 55.0589Z" fill="#0000F4"/>
<path d="M113.863 38.4948C115.773 38.4861 116.281 39.1868 115.782 41.0351C115.589 41.7708 115.203 42.0161 114.476 41.9285C113.854 41.8584 113.066 42.1037 112.637 41.8059C112.295 41.5606 112.33 40.7197 112.269 40.1328C112.12 38.5036 112.129 38.5036 113.863 38.4948Z" fill="#0000F4"/>
<path d="M119.154 14.6781C120.021 14.9409 120.976 15.0547 121.747 15.4927C122.851 16.1234 122.246 17.1482 121.966 17.9891C121.677 18.8563 121.037 18.3745 120.547 18.1906C118.707 17.5161 118.436 16.8767 119.154 14.6781Z" fill="#0000F4"/>
<path d="M85.5443 70.6418C85.4654 71.3425 85.9384 72.2798 84.5895 72.2886C82.5573 72.2973 82.5048 72.2535 82.4172 69.9761C82.3471 68.1278 83.845 69.0213 84.5194 68.8987C85.9647 68.6184 85.3428 69.9586 85.5443 70.6418Z" fill="#0000F4"/>
<path d="M79.2987 282.593C80.0696 282.969 80.8842 283.302 81.6375 283.749C82.3295 284.161 82.1543 285.229 81.4448 286.464C80.9367 287.332 80.5075 286.92 79.9995 286.561C79.9294 286.517 79.8593 286.482 79.7893 286.438C78.0812 285.378 77.9498 284.397 79.2987 282.593Z" fill="#0000F4"/>
<path d="M98.3242 308.906C98.622 308.118 98.9286 307.294 99.2527 306.488C99.3053 306.357 99.498 306.147 99.5768 306.173C100.339 306.392 101.189 306.515 101.793 306.953C102.047 307.137 101.968 308.109 101.74 308.573C100.899 310.281 100.856 310.255 98.3242 308.906Z" fill="#0000F4"/>
<path d="M80.823 259.941C80.1836 260.615 79.658 261.623 78.8784 261.877C78.0813 262.14 76.0579 260.361 76.2594 259.906C76.6448 259.03 76.9689 257.699 77.6346 257.48C78.7295 257.103 80.6829 258.864 80.823 259.941Z" fill="#0000F4"/>
<path d="M97.4657 249C96.7824 249.78 96.2218 250.954 95.3809 251.208C94.8028 251.383 93.4013 250.455 93.1473 249.736C92.7619 248.668 94.0232 246.933 94.7065 246.977C95.9853 247.056 97.2554 247.967 97.4657 249Z" fill="#0000F4"/>
<path d="M94.9519 267.562C95.4599 267.789 95.968 268.008 96.4673 268.245C97.8775 268.919 98.0089 269.751 96.8439 270.776C96.6687 270.934 96.2395 270.952 95.9855 270.864C94.0322 270.128 93.9008 269.699 94.9519 267.562Z" fill="#0000F4"/>
<path d="M85.0889 184.015C81.0596 181.842 75.4974 182.306 71.4243 185.985C72.125 184.575 72.7644 183.358 73.325 182.114C73.9645 180.668 74.49 179.171 75.1558 177.743C75.4711 177.068 75.8828 176.289 76.4697 175.921C78.3617 174.747 80.3501 173.696 82.6713 173.687C83.556 173.678 84.4582 173.713 85.3254 173.854C87.8656 174.265 89.0131 176.008 88.5489 178.557C88.0058 181.562 86.3327 184.032 84.7035 186.485C81.9355 190.654 78.3529 194.097 74.201 196.838C71.9586 198.319 69.3746 199.291 66.9394 200.473C66.7818 200.552 66.554 200.5 66.3613 200.508C65.9496 199.729 66.3788 199.457 67.0008 199.256C70.925 197.995 74.3674 195.884 77.4244 193.151C80.3851 190.505 83.2056 187.702 85.0889 184.015Z" fill="#0000F4"/>
<path d="M70.6095 193.466C69.6985 192.975 68.9277 192.616 68.2357 192.143C68.0167 191.994 67.8327 191.469 67.9291 191.224C68.2619 190.365 68.7174 189.559 69.2693 188.456C70.2416 189.086 71.4942 189.454 71.8971 190.251C72.5015 191.469 71.3365 192.45 70.6095 193.466Z" fill="#0000F4"/>
<path d="M101.224 200.946C102.073 202.19 101.863 203.119 101.364 204.065C99.7784 207.061 99.2529 210.328 99.1653 213.648C99.1302 214.961 99.4368 216.302 99.7171 217.607C100.006 218.965 101.057 219.805 102.292 219.788C103.58 219.77 104.246 218.973 104.622 217.835C104.719 217.545 104.868 217.274 105.297 216.95C105.446 217.405 105.709 217.852 105.726 218.316C105.849 220.988 105.963 223.66 105.98 226.34C105.989 227.251 105.875 228.232 105.533 229.073C104.736 231.061 102.397 231.578 100.576 230.29C98.666 228.933 98.1054 226.866 97.6236 224.746C96.5988 220.2 97.247 215.689 98.0966 211.221C98.6134 208.48 99.4105 205.799 100.146 203.101C100.339 202.427 100.777 201.822 101.224 200.946Z" fill="#0000F4"/>
<path d="M84.9135 219.849C85.7193 220.077 86.4464 220.296 87.1821 220.489C87.9705 220.69 88.1544 221.216 87.8741 221.873C87.55 222.643 87.1033 223.353 86.7267 224.08C83.582 222.731 83.3718 222.223 84.9135 219.849Z" fill="#0000F4"/>
<path d="M61.4646 119.414C63.9435 120.202 65.7217 121.543 67.3509 123.049C71.4766 126.868 73.8679 131.756 75.7774 136.95C77.3541 141.251 78.0461 145.736 78.887 150.203C79.0622 151.123 79.3513 152.017 79.5177 152.936C79.6053 153.392 79.5352 153.874 79.5352 154.347C79.3863 154.382 79.2286 154.408 79.0797 154.443C78.8607 154.057 78.5542 153.698 78.4228 153.287C77.3629 149.932 76.6359 146.437 75.2256 143.24C72.7379 137.572 69.1553 132.711 63.2866 129.995C62.9537 129.847 62.507 129.514 62.4719 129.225C62.104 126.045 61.8062 122.865 61.4646 119.414Z" fill="#0000F4"/>
<path d="M66.002 142.53C67.1232 142.635 68.0954 142.662 69.0327 142.845C69.2955 142.898 69.6021 143.406 69.6459 143.739C69.7335 144.536 69.6721 145.342 69.6721 146.2C68.6911 146.069 67.7714 145.999 66.8867 145.797C66.6414 145.745 66.3786 145.316 66.3173 145.009C66.1684 144.264 66.1158 143.502 66.002 142.53Z" fill="#0000F4"/>
<path d="M73.2286 118.319C69.8913 118.267 69.8563 118.486 69.9876 114.693C70.8723 114.789 72.2038 114.588 72.5191 115.061C73.0797 115.875 73.0096 117.119 73.2286 118.319Z" fill="#0000F4"/>
<path d="M112.409 84.394C112.409 83.0626 112.418 81.7399 112.409 80.4085C112.401 78.2274 111.271 76.6332 109.554 75.4682C108.897 75.0215 108.713 74.6448 108.8 73.909C108.897 73.1557 108.818 72.3849 108.818 71.3513C109.282 71.6053 109.685 71.7192 109.939 71.9732C111.945 74.0141 112.742 76.5894 112.917 79.3486C113.022 81.0217 112.821 82.7122 112.751 84.4028C112.637 84.4028 112.523 84.394 112.409 84.394Z" fill="#0000F4"/>
<path d="M118.479 69.0388C117.647 68.8899 116.929 68.8198 116.246 68.6184C116.018 68.5483 115.773 68.1892 115.738 67.9264C115.659 67.3745 115.711 66.7964 115.711 66.2358C115.711 65.5351 116.114 65.3249 116.736 65.3949C117.174 65.4475 117.665 65.4212 118.033 65.6227C118.401 65.8329 118.891 66.2621 118.891 66.6037C118.9 67.3833 118.646 68.1629 118.479 69.0388Z" fill="#0000F4"/>
<path d="M81.0421 93.0483C81.7866 93.1885 82.5487 93.2585 83.2582 93.495C83.5385 93.5914 83.8276 94.0644 83.8626 94.3885C83.9502 95.1944 83.8889 96.0177 83.8889 96.8586C81.0509 96.4294 80.5341 95.7024 81.0421 93.0483Z" fill="#0000F4"/>
<path d="M106.348 79.883C108.398 80.3209 108.59 80.7326 107.96 83.2203C106.418 83.0451 105.726 82.3268 106.348 79.883Z" fill="#0000F4"/>
<path d="M142.358 19.3643C141.368 19.1628 140.536 19.0402 139.73 18.8037C139.511 18.7424 139.265 18.3833 139.239 18.1292C138.968 15.808 139.484 15.4051 141.885 15.8956C142.612 16.0445 142.979 16.4036 142.839 17.1394C142.708 17.884 142.524 18.611 142.358 19.3643Z" fill="#0000F4"/>
<path d="M128.851 28.9208C129.639 29.0084 130.243 29.0172 130.821 29.1661C131.067 29.2274 131.373 29.5515 131.417 29.7968C131.505 30.261 131.487 30.7603 131.391 31.2246C131.286 31.6976 131.496 32.5385 130.559 32.3633C129.788 32.2144 128.737 32.337 128.842 31.0056C128.894 30.3661 128.851 29.7267 128.851 28.9208Z" fill="#0000F4"/>
<path d="M62.8837 73.0594C64.329 73.1382 65.3188 73.9704 66.1334 74.8901C69.2167 78.3413 70.2065 82.5108 70.0488 87.0306C69.9087 86.1196 69.7247 85.2174 69.6371 84.3064C69.3568 81.556 68.0079 79.3399 66.221 77.3427C65.8093 76.8785 65.2399 76.4668 64.6618 76.2478C62.8486 75.5646 62.6822 75.3456 62.8837 73.0594Z" fill="#0000F4"/>
</svg>
