<svg id="Layer_1" data-name="Layer 1" xmlns="http://www.w3.org/2000/svg" viewBox="0 0 18.45 29.08"><defs><style>.cls-1{opacity:0.9;}.cls-2{fill:#0000b7;}.cls-3{fill:#0000f4;}</style></defs><title>Artboard 1</title><g class="cls-1"><path class="cls-2" d="M7.81,21.62A31.71,31.71,0,0,1,.28,14.27,28.63,28.63,0,0,1,10.8,14c5.3.74,8.35,5.25,7.52,7.35S12.16,24.72,7.81,21.62Z"/><path class="cls-2" d="M7.81,7.46A31.5,31.5,0,0,0,.28,14.81a28.52,28.52,0,0,0,10.52.26c5.29-.73,8.35-5.24,7.52-7.34S12.16,4.36,7.81,7.46Z"/></g><path class="cls-3" d="M5.59,4.29A35.16,35.16,0,0,0,0,14.6a31.49,31.49,0,0,0,11.29-3.18c5.4-2.53,7.16-8.34,5.59-10.31S9.21-.45,5.59,4.29Z"/><path class="cls-3" d="M5.59,24.79A34.89,34.89,0,0,1,0,14.48a31.65,31.65,0,0,1,11.29,3.19C16.69,20.19,18.45,26,16.88,28S9.21,29.53,5.59,24.79Z"/></svg>