<svg id="Layer_1" data-name="Layer 1" xmlns="http://www.w3.org/2000/svg" viewBox="0 0 46.76 29.67"><defs><style>.cls-1{opacity:0.9;}.cls-2{fill:#0000b7;}.cls-3{fill:#0000f4;}</style></defs><title>Artboard 1</title><g class="cls-1"><path class="cls-2" d="M12,12.56A50.34,50.34,0,0,1,23.82.46c.1,0,1.79,7,.43,16.9-1.18,8.52-8.44,13.42-11.81,12.1S7,19.56,12,12.56Z"/><path class="cls-2" d="M34.76,12.55A50.45,50.45,0,0,0,23,.46c-.1,0-1.8,7-.43,16.9,1.17,8.52,8.43,13.42,11.8,12.1S39.76,19.56,34.76,12.55Z"/></g><path class="cls-3" d="M39.86,9C31.36,2.52,23.39-.09,23.28,0s.41,8.07,5.12,18.16c4.06,8.68,13.42,11.51,16.58,9S47.49,14.81,39.86,9Z"/><path class="cls-3" d="M6.9,9C15.4,2.52,23.37-.09,23.47,0s-.4,8.07-5.12,18.16c-4.05,8.68-13.41,11.51-16.57,9S-.72,14.81,6.9,9Z"/></svg>