<svg id="Layer_1" data-name="Layer 1" xmlns="http://www.w3.org/2000/svg" viewBox="0 0 46.76 29.67"><defs><style>.cls-1{opacity:0.9;}.cls-2{fill:#0000b7;}.cls-3{fill:#0000f4;}</style></defs><title>Artboard 1</title><g class="cls-1"><path class="cls-2" d="M34.75,17.12A50.45,50.45,0,0,1,23,29.21c-.1-.05-1.8-7-.43-16.9C23.69,3.79,31-1.11,34.32.22S39.75,10.11,34.75,17.12Z"/><path class="cls-2" d="M12,17.12a50.79,50.79,0,0,0,11.81,12.1c.1-.06,1.79-7,.43-16.91C23.06,3.79,15.8-1.11,12.43.22S7,10.11,12,17.12Z"/></g><path class="cls-3" d="M6.9,20.68c8.5,6.47,16.48,9.08,16.58,9s-.41-8.07-5.12-18.15C14.3,2.83,5,0,1.79,2.53S-.73,14.87,6.9,20.68Z"/><path class="cls-3" d="M39.86,20.68c-8.49,6.47-16.47,9.08-16.57,9s.4-8.07,5.12-18.15C32.47,2.83,41.82,0,45,2.53S47.48,14.87,39.86,20.68Z"/></svg>